<?xml version="1.0" encoding="UTF-8" standalone="no"?>
<svg
   xmlns:dc="http://purl.org/dc/elements/1.1/"
   xmlns:cc="http://creativecommons.org/ns#"
   xmlns:rdf="http://www.w3.org/1999/02/22-rdf-syntax-ns#"
   xmlns:svg="http://www.w3.org/2000/svg"
   xmlns="http://www.w3.org/2000/svg"
   xmlns:sodipodi="http://sodipodi.sourceforge.net/DTD/sodipodi-0.dtd"
   xmlns:inkscape="http://www.inkscape.org/namespaces/inkscape"
   version="1.2"
   viewBox="0 0 120 37"
   width="120"
   height="37"
   id="svg4592"
   sodipodi:docname="logo.svg"
   inkscape:version="0.92.4 (5da689c313, 2019-01-14)"
   inkscape:export-filename="C:\xampp\htdocs\4ina\bank\logo.png"
   inkscape:export-xdpi="401.03601"
   inkscape:export-ydpi="401.03601">
  <metadata
     id="metadata4598">
    <rdf:RDF>
      <cc:Work
         rdf:about="">
        <dc:format>image/svg+xml</dc:format>
        <dc:type
           rdf:resource="http://purl.org/dc/dcmitype/StillImage" />
        <dc:title>logo-svg</dc:title>
      </cc:Work>
    </rdf:RDF>
  </metadata>
  <defs
     id="defs4596" />
  <sodipodi:namedview
     pagecolor="#ffffff"
     bordercolor="#666666"
     borderopacity="1"
     objecttolerance="10"
     gridtolerance="10"
     guidetolerance="10"
     inkscape:pageopacity="0"
     inkscape:pageshadow="2"
     inkscape:window-width="1920"
     inkscape:window-height="1017"
     id="namedview4594"
     showgrid="false"
     inkscape:zoom="8.8388348"
     inkscape:cx="73.743688"
     inkscape:cy="11.753338"
     inkscape:window-x="-8"
     inkscape:window-y="-8"
     inkscape:window-maximized="1"
     inkscape:current-layer="g4639" />
  <title
     id="title4559">logo-svg</title>
  <style
     id="style4561">
		tspan { white-space:pre }
		.shp0 { fill: #00b262 } 
	</style>
  <g
     id="g4590">
    <text
       xml:space="preserve"
       style="font-style:normal;font-weight:normal;font-size:30.13298225px;line-height:1.25;font-family:sans-serif;letter-spacing:0px;word-spacing:0px;fill:#000000;fill-opacity:1;stroke:none;stroke-width:0.75332457"
       x="7.5829406"
       y="21.411285"
       id="text4617"><tspan
         sodipodi:role="line"
         id="tspan4615"
         style="font-style:normal;font-variant:normal;font-weight:bold;font-stretch:normal;font-size:16.07092476px;font-family:sans-serif;-inkscape-font-specification:'sans-serif Bold';white-space:pre;stroke-width:0.75332457"
         x="7.5829406"
         y="21.411285"><tspan
           style="fill:#aaeeff"
           id="tspan4641">p</tspan><tspan
           style="fill:#2ad4ff"
           id="tspan4647">r</tspan><tspan
           id="tspan877"
           style="fill:#80e5ff">u</tspan><tspan
           style="fill:#00ccff"
           id="tspan4651">s</tspan></tspan></text>
    <text
       xml:space="preserve"
       style="font-style:normal;font-weight:normal;font-size:31.22460365px;line-height:1.25;font-family:sans-serif;letter-spacing:0px;word-spacing:0px;fill:#000000;fill-opacity:1;stroke:none;stroke-width:0.78061509"
       x="71.098846"
       y="24.704264"
       id="text4621"><tspan
         sodipodi:role="line"
         id="tspan4619"
         style="font-style:normal;font-variant:normal;font-weight:bold;font-stretch:normal;font-size:16.65312195px;font-family:sans-serif;-inkscape-font-specification:'sans-serif Bold';white-space:pre;stroke-width:0.78061509"
         x="71.098846"
         y="24.704264"><tspan
           style="fill:#55ddff"
           id="tspan4653">b</tspan><tspan
           style="fill:#00ccff"
           id="tspan4655">a</tspan><tspan
           style="fill:#aaeeff"
           id="tspan4657">n</tspan><tspan
           style="fill:#2ad4ff"
           id="tspan4659">k</tspan></tspan></text>
    <g
       id="g4639"
       transform="translate(2.625589,38.784257)">
      <path
         inkscape:connector-curvature="0"
         style="fill:#0088aa;stroke-width:0.52864867"
         d="m 63.014399,-28.282708 c -0.126876,-0.05287 -0.253751,-0.100444 -0.385913,-0.137449 -0.126876,-0.04229 -0.259038,-0.0793 -0.385914,-0.116303 -0.132162,-0.03172 -0.264324,-0.05815 -0.396486,-0.08459 -0.137449,-0.02115 -0.269612,-0.04229 -0.407059,-0.05815 -0.08459,-0.08458 -0.169168,-0.169168 -0.259039,-0.253751 -0.08987,-0.0793 -0.17974,-0.158595 -0.26961,-0.237892 -0.09516,-0.0793 -0.185028,-0.153308 -0.285471,-0.227319 -0.09516,-0.07401 -0.190314,-0.142736 -0.290757,-0.21146 0.237892,0.07401 0.475784,0.158595 0.70839,0.253752 0.227319,0.08987 0.459924,0.1956 0.681957,0.306616 0.222032,0.111016 0.444064,0.227318 0.660811,0.359481 0.211459,0.126875 0.422919,0.264324 0.629091,0.40706 z"
         class="shp0"
         id="Layer" />
      <path
         inkscape:connector-curvature="0"
         style="fill:#0088aa;stroke-width:0.52864867"
         d="m 64.415318,-13.47526 c 0.06872,-0.07401 0.137449,-0.148021 0.206173,-0.222032 0.06872,-0.07401 0.132162,-0.148022 0.200887,-0.222032 0.06343,-0.0793 0.126875,-0.153309 0.190313,-0.232606 0.06343,-0.0793 0.126876,-0.158594 0.185027,-0.237892 0.111016,-0.248464 0.216746,-0.502216 0.306616,-0.755968 0.09516,-0.259037 0.174455,-0.518075 0.248465,-0.777113 0.07401,-0.264324 0.137449,-0.528649 0.1956,-0.792973 0.05287,-0.26961 0.09516,-0.533935 0.132162,-0.808832 0.07401,-0.01057 0.148022,-0.03172 0.222032,-0.05816 0.06872,-0.02643 0.137449,-0.05287 0.206174,-0.08987 0.06872,-0.03172 0.137449,-0.06872 0.200886,-0.111015 0.06343,-0.04229 0.121589,-0.08987 0.17974,-0.137449 0.02643,-0.111017 0.05287,-0.216746 0.07401,-0.327762 0.02643,-0.10573 0.04758,-0.216746 0.06343,-0.322476 0.02115,-0.111016 0.03701,-0.222032 0.05287,-0.333049 0.01586,-0.10573 0.03172,-0.216745 0.04229,-0.327762 -0.153308,0.05815 -0.306616,0.111017 -0.459924,0.163881 -0.153308,0.05287 -0.311903,0.100444 -0.470497,0.142736 -0.153308,0.04229 -0.311903,0.08459 -0.470498,0.121589 -0.158594,0.03701 -0.317189,0.06872 -0.48107,0.100443 -0.158594,0.03172 0.269611,2.881135 -0.824692,5.228335 z"
         class="shp0"
         id="path4564" />
      <path
         inkscape:connector-curvature="0"
         style="fill:#2ad4ff;stroke-width:0.52864867"
         d="m 56.628323,-10.5254 c 0,0 -1.665243,-4.71026 -1.813264,-5.106746 0,0 -4.430077,1.432638 -5.016877,1.559513 0.04758,0.05815 0.09516,0.111017 0.142736,0.169168 0.04758,0.05287 0.09516,0.111017 0.142735,0.163881 0.04758,0.05287 0.100444,0.10573 0.148021,0.158594 0.05287,0.05287 0.100444,0.10573 0.153308,0.158595 0.5868,0.274898 3.584239,-0.46521 3.584239,-0.454638 0.496929,1.126022 1.570086,3.208898 1.570086,3.208898"
         class="shp0"
         id="path4566" />
      <path
         inkscape:connector-curvature="0"
         style="fill:#00aad4;stroke-width:0.52864867"
         d="m 54.487297,-10.93246 c 0,0 -0.660811,-0.893416 -1.147168,-1.649383 -1.300476,0.04229 -1.982432,0.02115 -1.982432,0.02115 0,0 0.639664,0.470496 0.740107,0.528648 0.06872,0.02114 0.142736,0.04229 0.211459,0.06343 0.06872,0.02115 0.142736,0.04229 0.21146,0.05815 0.06872,0.01586 0.142736,0.03172 0.216746,0.04229 0.06872,0.01586 0.142735,0.02643 0.216747,0.03701 0.04758,0.05287 0.100443,0.100444 0.148021,0.153308 0.05287,0.05287 0.10573,0.100443 0.158594,0.148022 0.05815,0.04758 0.111017,0.09516 0.169168,0.142735 0.05287,0.04758 0.111017,0.08987 0.169168,0.137449 0.327762,0.132162 0.634377,0.243178 0.882843,0.317188"
         class="shp0"
         id="path4568" />
      <path
         inkscape:connector-curvature="0"
         style="fill:#00aad4;stroke-width:0.52864867"
         d="m 51.325978,-25.919648 -0.491644,-1.644098 c -0.0793,0.06872 -0.153308,0.137449 -0.227318,0.206173 -0.07401,0.06872 -0.148023,0.142735 -0.216747,0.216746 -0.07401,0.06872 -0.142735,0.142735 -0.211459,0.216745 -0.06872,0.0793 -0.137449,0.153309 -0.206173,0.232606 -0.01586,0.07401 -0.03172,0.148022 -0.04758,0.227319 -0.01058,0.07401 -0.02643,0.148022 -0.03701,0.227319 -0.01058,0.07401 -0.01586,0.153308 -0.02114,0.232605 -0.0052,0.07401 -0.01057,0.153308 -0.01586,0.227319 0,0.0793 -1.274044,1.215892 -1.781547,2.426498 -0.03172,0.08987 -0.05815,0.17974 -0.08458,0.269611 -0.02643,0.09516 -0.05287,0.185027 -0.0793,0.274897 -0.02643,0.09516 -0.04758,0.185026 -0.06872,0.280184 -0.02115,0.08987 -0.04229,0.185027 -0.06344,0.274897 -0.01586,0.09516 0.983286,-1.903136 3.552518,-3.668821 z"
         class="shp0"
         id="path4570" />
      <path
         inkscape:connector-curvature="0"
         style="fill:#00ccff;stroke-width:0.52864867"
         d="m 53.049372,-29.070395 v 0 c -0.09516,0.04758 -0.185028,0.09516 -0.274898,0.142735 -0.08987,0.04758 -0.17974,0.09516 -0.264324,0.148022 -0.08987,0.04758 -0.174453,0.100443 -0.264324,0.153308 -0.08459,0.05287 -0.169167,0.111016 -0.259038,0.163881 v 0 c 0.116303,0.296043 0.639665,1.353341 1.237038,2.791265 -3.726973,1.855557 -5.619535,4.21333 -5.640682,5.238908 -0.0052,0.09516 -0.0052,0.185028 0,0.280184 0,0.09516 0.0052,0.185027 0.0052,0.280184 0.0052,0.09516 0.01058,0.185027 0.01586,0.280184 0.0052,0.09516 0.01586,0.185027 0.02643,0.280183 v -0.01586 c 0.05287,-1.274043 2.57452,-3.652962 7.739417,-5.677686 -1.311049,-3.251189 -1.966573,-4.128747 -2.320768,-4.065308 z"
         class="shp0"
         id="path4572" />
      <path
         inkscape:connector-curvature="0"
         style="fill:#55ddff;stroke-width:0.52864867"
         d="m 58.912086,-10.620556 c -0.05287,-1.934855 -0.713676,-5.756985 -1.85027,-9.431092 -5.233623,1.7604 -8.616974,3.695253 -8.384368,4.282053 0.132162,0.248465 0.26961,0.486357 0.417632,0.724249 v 0 c 0.555081,-0.264325 1.110162,-0.518076 1.675817,-0.761254 0.560366,-0.243178 1.131307,-0.475784 1.702247,-0.697816 0.570942,-0.227319 1.147168,-0.438779 1.723396,-0.639665 0.576227,-0.206173 1.163027,-0.396486 1.74454,-0.581514 0.914562,2.722541 1.675817,6.010735 1.781546,7.221341"
         class="shp0"
         id="path4574" />
      <path
         inkscape:connector-curvature="0"
         style="fill:#aaeeff;stroke-width:0.52864867"
         d="m 60.06454,-10.874308 c 0.26961,-0.07401 0.528648,-0.163882 0.792972,-0.259038 1.089017,-0.528649 0.988574,-3.240616 0.438779,-6.512951 -0.385913,-2.246757 -1.326908,-5.233622 -1.326908,-5.233622 0.264324,-0.06343 0.528648,-0.126876 0.792973,-0.190314 0.269611,-0.05815 0.533935,-0.116302 0.803546,-0.169168 0.264325,-0.05287 0.533935,-0.100443 0.803546,-0.142734 0.269611,-0.04758 0.539221,-0.08987 0.808832,-0.126876 2.447643,-0.338335 3.309341,0 3.547233,0.290757 -0.03172,-0.10573 -0.06872,-0.21146 -0.10573,-0.31719 -0.037,-0.105729 -0.07401,-0.211459 -0.116303,-0.317189 -0.037,-0.100443 -0.0793,-0.206172 -0.126876,-0.306615 -0.04229,-0.100444 -0.08987,-0.206174 -0.137448,-0.306617 -0.401773,-0.401773 -1.649384,-0.718962 -3.61067,-0.597373 -0.280184,0.02114 -0.555082,0.04758 -0.829979,0.0793 -0.274897,0.03172 -0.549795,0.06872 -0.824691,0.116303 -0.269612,0.04229 -0.544509,0.08987 -0.814119,0.148022 -0.274898,0.05287 -0.544509,0.116302 -0.814119,0.17974 -0.09516,-0.243178 -0.190314,-0.486357 -0.296044,-0.729535 -0.100443,-0.237894 -0.206173,-0.481073 -0.317189,-0.718964 -0.111016,-0.237892 -0.222033,-0.475784 -0.338335,-0.713676 -0.116303,-0.232605 -0.237892,-0.465211 -0.359481,-0.697816 -0.962141,-1.7604 -1.839698,-2.611525 -2.669676,-2.463503 v 0 c -0.306616,0.06344 -0.607946,0.137449 -0.898703,0.232605 v 0 c 0.243179,0.237892 0.925136,0.718962 1.924281,2.680249 0.116303,0.232606 0.232606,0.465211 0.343622,0.703103 0.10573,0.237892 0.216746,0.475784 0.317189,0.713676 0.10573,0.243178 0.206174,0.48107 0.306617,0.724248 0.09516,0.243179 0.190313,0.486357 0.280183,0.729535 0.09516,0.243179 -1.749826,0.549795 -3.3252,1.242325 -3.600098,1.580659 -6.523524,3.679394 -6.391362,5.106745 v 0 c 0.06343,0.237892 0.137449,0.470498 0.216746,0.703104 v 0 c 0.354194,-1.18946 3.335773,-2.854704 6.692692,-4.19747 1.485503,-0.597374 3.399211,-1.184174 3.399211,-1.184174 0.142735,0.433492 0.280183,0.866984 0.412345,1.305762 0.132163,0.433493 0.253752,0.87227 0.375342,1.311049 0.116302,0.438778 0.232605,0.877557 0.338334,1.321621 0.10573,0.438779 0.206173,0.882844 0.30133,1.332195 0.111017,0.565654 1.115449,5.513805 0.417632,6.264487"
         class="shp0"
         id="path4576" />
      <path
         inkscape:connector-curvature="0"
         style="fill:#00ccff;stroke-width:0.52864867"
         d="m 64.410031,-27.093249 v 0 c -0.327761,-0.274897 -1.496075,-0.644952 -3.193038,-0.660811 -0.946281,-1.379773 -1.94014,-2.098735 -2.833556,-2.25733 -0.10573,-0.01058 -0.211459,-0.02114 -0.311903,-0.02643 -0.10573,-0.01057 -0.21146,-0.01586 -0.317189,-0.01586 -0.100443,-0.0052 -0.206173,-0.01058 -0.311903,-0.01058 -0.100443,0 -0.206173,0 -0.311902,0 v 0 c 0.555081,0.132162 1.818551,1.020292 3.251189,3.689968 3.171892,-0.449351 4.678541,0.10573 5.075027,0.555081 v 0 c -0.0793,-0.116303 -0.158595,-0.227319 -0.243178,-0.333049 -0.08459,-0.111016 -0.169168,-0.222032 -0.253751,-0.327762 -0.08987,-0.10573 -0.179741,-0.211459 -0.269611,-0.311902 -0.08987,-0.100444 -0.185027,-0.200887 -0.280185,-0.30133 z"
         class="shp0"
         id="path4578" />
      <path
         inkscape:connector-curvature="0"
         style="fill:#00ccff;stroke-width:0.52864867"
         d="m 67.164291,-20.696601 c -0.0052,-0.105729 -0.01058,-0.211459 -0.01586,-0.322475 -0.01057,-0.105729 -0.02114,-0.211459 -0.03172,-0.317189 -0.01058,-0.10573 -0.02643,-0.211459 -0.037,-0.317189 -0.01586,-0.10573 -0.03172,-0.21146 -0.05287,-0.317189 v 0 c -0.0793,-0.08987 -0.882843,-0.401773 -4.90586,0.496929 1.47493,6.412509 0.761255,8.981741 0.03172,9.737709 0.0793,-0.04229 0.163881,-0.08987 0.243179,-0.137449 0.0793,-0.04758 0.158594,-0.100443 0.232606,-0.148022 0.0793,-0.04758 0.158594,-0.100442 0.232605,-0.153308 0.0793,-0.05287 0.153308,-0.10573 0.227319,-0.158594 0.787686,-0.718963 1.517221,-2.992152 0.845838,-7.739417 1.908421,-0.396486 2.997438,-0.518076 3.23533,-0.623806 z"
         class="shp0"
         id="path4580" />
    </g>
  </g>
</svg>
